<svg id="Layer_1" enable-background="new 0 0 26 26" height="512" viewBox="0 0 26 26" width="512" xmlns="http://www.w3.org/2000/svg"><g id="_x38_49"><path d="m7.3999023 25h11.1999512c3.5300293 0 6.4001465-2.8699951 6.4001465-6.4000244v-11.1999512c0-3.5300293-2.8701172-6.4000244-6.4001465-6.4000244h-11.1999512c-3.5300293 0-6.3999023 2.8699951-6.3999023 6.4000244v11.1999512c0 3.5300293 2.869873 6.4000244 6.3999023 6.4000244zm11.52417-12.380188-1.7830811-1.7831421c-.44104-.4411011-.44104-1.1555786 0-1.5966187.44104-.4411011 1.1556396-.4411011 1.5965576 0l2.9606934 2.9605713c.440918.440918.440918 1.1557617 0 1.5966797l-2.9606934 2.9605713c-.4409828.4411049-1.1553783.4410572-1.5965576 0-.44104-.44104-.44104-1.1555786 0-1.5966187l1.7830811-1.7831421c.2094726-.2094115.2094726-.5488891 0-.7583007zm-5.8596192-5.9368286c.1179199-.6119995.7034912-1.0144653 1.3220215-.8942871.6120605.118042 1.0134277.710144.8942871 1.3220825l-2.3530273 12.2041626c-.1194277.6225986-.7227631 1.0123692-1.3220215.8942261-.6120605-.117981-1.0134277-.710083-.8942871-1.3220825zm-8.7705078 5.5176392 2.9606934-2.9605713c.44104-.4411011 1.1555176-.4411011 1.5966797 0 .440918.44104.440918 1.1555176 0 1.5966187l-1.7832032 1.783142c-.2094727.2094116-.2094727.5488892 0 .7583008l1.7832031 1.7831421c.440918.44104.440918 1.1555786 0 1.5966187-.4411077.4409866-1.1556273.4411755-1.5966797 0l-2.9606934-2.9605713c-.4409179-.440918-.4409179-1.1557618.0000001-1.5966797z"/></g></svg>