<svg id="&#x5F62;&#x72B6;_1_1_" enable-background="new 0 0 512 512" height="512" viewBox="0 0 512 512" width="512" xmlns="http://www.w3.org/2000/svg"><g id="&#x5F62;&#x72B6;_1"><g><path clip-rule="evenodd" d="m414.154 163.646-4.717 13.202h76.573v-13.202zm-56.524 13.225-4.654-13.235-71.095.009c-.021 0 .023 13.207.023 13.227 0 .015 75.76-.02 75.726-.001zm-101.632-.003c-8.678-7.922-18.863-12.096-30.58-13.227l-98.289-.003v13.229c0 .014 128.869.001 128.869.001zm-229.997-.023h89.525v-13.203h-89.525zm374.661 24.775h85.349v-13.139h-80.722c.028.006-4.627 13.139-4.627 13.139zm-118.785.016h84.549l-4.632-13.156h-79.917zm-154.724-.021h142.589c0-5.093-2.011-8.801-3.709-13.14h-138.88zm-101.152 0h89.525v-13.14h-89.525zm434.7 11.656-64.085-.019-4.685 13.199 68.77-.029zm-153.615 13.181h68.122l-4.669-13.203h-63.453zm-36.213-13.205h-40.928v13.205h39.041c1.319-3.962 1.887-8.679 1.887-13.205zm-181.439.065h-38.48v13.138h38.48zm63.621-.065v13.202h38.414v-13.202zm307.623 37.472v-13.141h-72.676c-.008-.027-4.306 12.261-4.327 12.253l-4.479-12.25h-72.11v13.138h37.843c.008-.019-.003-10.011-.003-10.011l3.477 9.992 71.115.019 3.482-10.009s.019 9.99.021 10.009zm-197.351-13.147c-.001.002-.002.004-.003.006h.003zm-110.275 13.147c0 .019 99.336 0 99.336 0 4.149-3.395 8.522-8.739 10.936-13.141h-110.27c.001.024-.002 13.122-.002 13.141zm-102.098-.002h38.48v-13.142h-38.48zm409.724 11.635h-37.656v13.139h37.656zm-153.592 0v13.139c-.02-.007 37.851.004 37.851 0 0-.007.043-13.139-.011-13.139zm50.103 13.161 53.638-.022c.178-.007 4.417-13.158 4.589-13.139h-62.945c.003-.02 4.676 13.14 4.718 13.161zm-93.168-.023c-3.206-4.717-7.296-9.369-11.822-13.143h-99.15c0 .014.003 13.136.003 13.143 0 .004 111.149-.007 110.969 0zm-174.593-13.142h-38.41s.008 13.136 0 13.136 38.392.003 38.41.003zm333.593 37.915h37.653v-13.141h-37.653zm-115.938-.002h37.843v-13.139h-37.843zm58.732.005s36.196.113 36.205.059c.011-.059 4.645-13.214 4.717-13.202h-45.597c-.078-.007 4.675 13.143 4.675 13.143zm-173.779 0c.035 0 0-13.146 0-13.146h-38.983c-.003.003 0 13.194 0 13.142-.001-.013 38.946.004 38.983.004zm38.599-13.147v13.202h41.306c-.376-4.527-.564-9.241-2.449-13.202zm-179.617 13.139h38.41v-13.139h-38.41zm372.003 24.272h62.987v-13.145h-62.987zm-141.146 0h63.051v-13.145h-63.051zm92.441 0h19.231l4.447-13.145h-28.293zm-258.856-13.136c.037 0-89.568-.008-89.463-.008v13.139h89.463c.037.02-.041-13.131 0-13.131zm11.688 13.13h137.002l1.182.006c3.168-3.524 4.031-8.81 4.973-13.145h-143.157zm255.914 24.806h1.77l4.613-13.171h-10.878zm39.957.031h62.99v-13.202h-62.99zm-295.89-.031.019.005 96.195.026c12.824-.186 24.731-4.869 33.409-13.165-.371 0-129.623-.016-129.623-.016zm154.746.031h63.051v-13.202h-63.051zm-255.878-13.18c.024 0-.024 13.149 0 13.175.026.027 89.5-.025 89.463-.025-.041 0 0-13.113 0-13.113-.041.043-89.488-.037-89.463-.037z" fill="#4a80c1" fill-rule="evenodd"/></g></g></svg>